<svg width="1899" height="375" viewBox="0 0 1899 375" fill="none" xmlns="http://www.w3.org/2000/svg">
<path d="M155.208 6.64575L130 45.9999H6.64583V6.64575H155.208ZM216.229 6.64575L68.1042 242.312H209.604V281.667H0L173.771 6.64575H216.229Z" fill="white"/>
<path d="M596.042 6.64575H640.251L554.48 149.896L533.251 113.646L596.042 6.64575ZM404.584 6.64575H448.792L542.105 170.25V281.667H502.751V170.25L404.584 6.64575Z" fill="white"/>
<path d="M848.953 281.667V87.5625L888.307 126.917V281.667H848.953ZM1039.1 6.64583H1078.43V288.292L848.953 54.3958V0L1039.1 195V6.64583Z" fill="white"/>
<path d="M1296.87 6.64575H1454.27V45.9999H1296.87V6.64575ZM1434.37 163.604H1296.87V125.146H1434.37V163.604ZM1336.23 242.312H1454.27V281.667H1296.87V242.312H1336.23Z" fill="white"/>
<path d="M1889.37 6.64575L1808.46 122.042L1785.02 89.3333L1842.5 6.64575H1889.37ZM1700.56 6.64575L1896 281.667H1848.69L1771.31 170.687L1694.37 281.667H1647.06L1746.98 139.729L1653.69 6.64575H1700.56Z" fill="white"/>
<path d="M3.19 362V322.4H36.19C37.4 322.4 38.5 322.693 39.49 323.28C40.5167 323.867 41.3233 324.673 41.91 325.7C42.4967 326.69 42.79 327.79 42.79 329V355.4C42.79 356.61 42.4967 357.728 41.91 358.755C41.3233 359.745 40.5167 360.533 39.49 361.12C38.5 361.707 37.4 362 36.19 362H3.19ZM9.79 357.545H36.19C36.7767 357.545 37.2717 357.343 37.675 356.94C38.115 356.5 38.335 355.987 38.335 355.4V329C38.335 328.413 38.115 327.918 37.675 327.515C37.2717 327.075 36.7767 326.855 36.19 326.855H9.79C9.20333 326.855 8.69 327.075 8.25 327.515C7.84667 327.918 7.645 328.413 7.645 329V355.4C7.645 355.987 7.84667 356.5 8.25 356.94C8.69 357.343 9.20333 357.545 9.79 357.545ZM172.259 362V322.4H208.394V326.855H176.714V339.945H202.179V344.455H176.714V357.545H208.394V362H172.259ZM359.239 362L336.304 322.4H341.529L361.824 357.655L382.064 322.4H387.289L364.409 362H359.239ZM515.93 362V322.4H552.065V326.855H520.385V339.945H545.85V344.455H520.385V357.545H552.065V362H515.93ZM681.184 362V322.345H685.639V357.545H720.784V362H681.184ZM853.68 362C852.47 362 851.352 361.707 850.325 361.12C849.335 360.533 848.547 359.745 847.96 358.755C847.374 357.728 847.08 356.61 847.08 355.4V329C847.08 327.79 847.374 326.69 847.96 325.7C848.547 324.673 849.335 323.867 850.325 323.28C851.352 322.693 852.47 322.4 853.68 322.4H880.08C881.29 322.4 882.39 322.693 883.38 323.28C884.407 323.867 885.214 324.673 885.8 325.7C886.387 326.69 886.68 327.79 886.68 329V355.4C886.68 356.61 886.387 357.728 885.8 358.755C885.214 359.745 884.407 360.533 883.38 361.12C882.39 361.707 881.29 362 880.08 362H853.68ZM853.68 357.545H880.08C880.667 357.545 881.162 357.343 881.565 356.94C882.005 356.5 882.225 355.987 882.225 355.4V329C882.225 328.413 882.005 327.918 881.565 327.515C881.162 327.075 880.667 326.855 880.08 326.855H853.68C853.094 326.855 852.58 327.075 852.14 327.515C851.737 327.918 851.535 328.413 851.535 329V355.4C851.535 355.987 851.737 356.5 852.14 356.94C852.58 357.343 853.094 357.545 853.68 357.545ZM1015.94 362V322.455H1048.94C1050.15 322.455 1051.25 322.767 1052.24 323.39C1053.26 323.977 1054.07 324.765 1054.66 325.755C1055.24 326.745 1055.54 327.845 1055.54 329.055V340.66C1055.54 341.87 1055.24 342.97 1054.66 343.96C1054.07 344.95 1053.26 345.757 1052.24 346.38C1051.25 346.967 1050.15 347.26 1048.94 347.26H1020.39V362H1015.94ZM1022.54 342.75H1048.94C1049.52 342.75 1050.02 342.548 1050.42 342.145C1050.86 341.742 1051.08 341.247 1051.08 340.66V329.055C1051.08 328.468 1050.86 327.973 1050.42 327.57C1050.02 327.13 1049.52 326.91 1048.94 326.91H1022.54C1021.95 326.91 1021.44 327.13 1021 327.57C1020.59 327.973 1020.39 328.468 1020.39 329.055V340.66C1020.39 341.247 1020.59 341.742 1021 342.145C1021.44 342.548 1021.95 342.75 1022.54 342.75ZM1182.64 362V322.4H1188.75L1205.19 341.98L1221.64 322.4H1227.74V362H1223.29V327.46L1205.19 348.965L1187.1 327.46V362H1182.64ZM1356.98 362V322.4H1393.11V326.855H1361.43V339.945H1386.9V344.455H1361.43V357.545H1393.11V362H1356.98ZM1522.18 362V322.4H1528.28L1557.32 356.94V322.4H1561.78V362H1555.67L1526.63 327.46V362H1522.18ZM1706.76 362V326.855H1689.16V322.4H1728.76V326.855H1711.21V362H1706.76ZM1862.4 362C1861.19 362 1860.07 361.707 1859.04 361.12C1858.05 360.533 1857.26 359.745 1856.68 358.755C1856.09 357.728 1855.8 356.61 1855.8 355.4V353.86H1860.25V355.4C1860.25 355.987 1860.45 356.5 1860.86 356.94C1861.3 357.343 1861.81 357.545 1862.4 357.545H1888.8C1889.38 357.545 1889.88 357.343 1890.28 356.94C1890.72 356.5 1890.94 355.987 1890.94 355.4V346.545C1890.94 345.958 1890.72 345.463 1890.28 345.06C1889.88 344.657 1889.38 344.455 1888.8 344.455H1862.4C1861.19 344.455 1860.07 344.162 1859.04 343.575C1858.05 342.952 1857.26 342.145 1856.68 341.155C1856.09 340.165 1855.8 339.065 1855.8 337.855V329C1855.8 327.79 1856.09 326.69 1856.68 325.7C1857.26 324.673 1858.05 323.867 1859.04 323.28C1860.07 322.693 1861.19 322.4 1862.4 322.4H1888.8C1890.01 322.4 1891.11 322.693 1892.1 323.28C1893.12 323.867 1893.93 324.673 1894.52 325.7C1895.1 326.69 1895.4 327.79 1895.4 329V330.54H1890.94V329C1890.94 328.413 1890.72 327.918 1890.28 327.515C1889.88 327.075 1889.38 326.855 1888.8 326.855H1862.4C1861.81 326.855 1861.3 327.075 1860.86 327.515C1860.45 327.918 1860.25 328.413 1860.25 329V337.855C1860.25 338.442 1860.45 338.937 1860.86 339.34C1861.3 339.743 1861.81 339.945 1862.4 339.945H1888.8C1890.01 339.945 1891.11 340.257 1892.1 340.88C1893.12 341.467 1893.93 342.255 1894.52 343.245C1895.1 344.235 1895.4 345.335 1895.4 346.545V355.4C1895.4 356.61 1895.1 357.728 1894.52 358.755C1893.93 359.745 1893.12 360.533 1892.1 361.12C1891.11 361.707 1890.01 362 1888.8 362H1862.4Z" fill="white"/>
</svg>
